<?xml version="1.0" standalone="no"?>
<!DOCTYPE svg PUBLIC "-//W3C//DTD SVG 20010904//EN"
 "http://www.w3.org/TR/2001/REC-SVG-20010904/DTD/svg10.dtd">
<svg version="1.0" xmlns="http://www.w3.org/2000/svg"
 width="196.000000pt" height="244.000000pt" viewBox="0 0 196.000000 244.000000"
 preserveAspectRatio="xMidYMid meet">
<metadata>
Created by potrace 1.15, written by Peter Selinger 2001-2017
</metadata>
<g transform="translate(0.000000,244.000000) scale(0.100000,-0.100000)"
fill="#000000" stroke="none">
<path d="M800 2426 c-19 -7 -89 -40 -155 -73 -90 -45 -135 -62 -178 -66 -72
-7 -115 -32 -145 -83 -19 -34 -22 -51 -20 -129 2 -89 2 -90 -40 -160 -23 -38
-73 -139 -112 -224 l-70 -154 0 -261 c0 -256 0 -263 30 -384 34 -140 42 -154
123 -238 l59 -62 -43 -63 c-24 -35 -46 -67 -49 -71 -3 -4 -32 17 -64 47 -58
56 -92 72 -122 61 -14 -5 -16 -20 -12 -95 3 -74 9 -99 36 -152 34 -69 92 -139
116 -139 14 0 281 263 298 294 7 12 17 10 71 -13 34 -16 103 -39 154 -52 80
-20 90 -25 82 -41 -8 -14 -19 -16 -79 -11 -91 8 -105 -2 -96 -70 10 -75 41
-145 96 -219 46 -63 53 -68 88 -68 34 0 42 5 76 50 21 28 63 105 93 173 30 67
58 126 62 130 5 5 35 1 69 -7 155 -41 274 4 445 166 48 46 60 52 84 47 47 -11
128 -10 162 2 58 20 79 104 42 166 l-20 31 29 12 c42 17 62 44 58 77 -2 22
-13 34 -51 54 -26 14 -52 30 -58 36 -8 8 15 50 79 144 113 171 122 188 122
247 0 50 -16 75 -67 101 -30 15 -88 14 -121 -3 -28 -15 -120 -108 -236 -239
l-69 -78 -21 20 c-74 70 -214 86 -385 44 -22 -6 -23 -4 -16 38 11 67 54 198
86 261 56 110 95 242 120 403 17 110 18 330 1 377 -17 47 -96 118 -176 158
-53 27 -69 30 -150 29 -50 0 -107 -6 -126 -13z m181 -67 c56 -19 96 -56 138
-127 56 -95 67 -145 52 -244 -16 -102 -73 -303 -159 -561 -63 -190 -67 -207
-66 -289 0 -49 3 -90 6 -93 3 -3 22 -9 42 -12 35 -5 36 -5 36 25 0 28 4 31 53
43 28 7 84 13 123 13 59 -1 83 -6 139 -33 68 -31 68 -32 49 -50 -16 -17 -29
-18 -92 -14 -60 5 -72 9 -67 21 8 22 -34 62 -66 62 -38 0 -42 -11 -20 -53 l18
-35 -34 -7 c-39 -7 -83 -25 -83 -34 1 -29 24 -36 132 -42 141 -7 189 -20 239
-66 48 -43 65 -74 80 -142 17 -83 1 -121 -84 -191 -40 -33 -100 -74 -134 -92
l-63 -31 -107 13 c-60 7 -123 11 -142 9 -33 -4 -34 -6 -70 -109 -48 -135 -98
-230 -122 -230 -22 0 -52 41 -78 109 -27 67 -26 75 3 56 14 -9 37 -15 53 -13
28 3 48 27 107 129 25 45 26 47 9 67 -13 15 -59 31 -158 56 -372 96 -513 242
-555 580 -13 104 -13 200 1 328 10 93 18 118 77 257 36 84 71 155 78 158 6 2
123 -17 260 -42 262 -49 399 -61 399 -36 0 8 -23 22 -55 33 -71 25 -441 116
-503 124 -26 4 -50 11 -53 16 -3 4 0 24 6 44 10 30 16 35 34 30 11 -3 32 -6
46 -6 23 0 26 -3 22 -33 -3 -30 0 -35 27 -46 43 -18 198 -11 211 9 14 22 13
28 -15 56 -28 28 -61 28 -59 1 1 -12 -6 -17 -28 -17 -42 0 -28 15 52 55 78 39
84 46 76 81 -6 22 -11 25 -36 19 -27 -6 -30 -4 -30 17 0 13 -11 48 -24 79
l-23 57 36 17 c182 88 253 107 322 84z m889 -999 c49 -49 9 -127 -149 -292
-61 -64 -111 -121 -111 -126 0 -15 58 -48 110 -63 55 -15 70 -26 70 -50 0 -25
-30 -32 -84 -18 -26 6 -50 9 -53 5 -3 -3 15 -28 41 -56 38 -40 66 -85 66 -105
0 -2 -7 -11 -16 -19 -17 -18 -79 -21 -117 -7 -23 9 -25 15 -28 94 -4 77 -7 88
-41 140 -21 31 -57 71 -81 88 l-43 33 102 92 c114 105 191 187 242 257 37 52
60 59 92 27z m-1466 -839 c9 -14 -242 -253 -262 -249 -23 4 -68 97 -86 177
l-15 65 79 -79 78 -78 24 24 c13 13 50 57 82 96 49 62 61 71 76 63 11 -6 21
-14 24 -19z"/>
<path d="M875 2119 c-43 -25 -76 -65 -95 -116 -27 -74 -26 -105 8 -141 32 -34
80 -51 169 -59 83 -8 113 6 160 74 67 97 48 174 -53 220 -63 28 -159 40 -189
22z"/>
<path d="M761 1513 c-17 -14 -29 -56 -61 -203 -56 -268 -59 -275 -130 -345
-33 -33 -60 -67 -60 -77 0 -19 36 -48 60 -48 8 -1 24 -15 35 -33 29 -46 75
-49 106 -8 21 28 23 29 46 14 22 -14 25 -14 44 3 12 10 28 31 35 47 13 24 13
31 -1 61 -9 19 -25 42 -36 52 -10 9 -19 23 -19 30 0 7 34 96 75 198 89 219 96
276 36 276 -27 0 -29 -5 -66 -121 -20 -67 -51 -151 -67 -187 -50 -109 -47
-197 6 -241 9 -8 16 -25 16 -38 l0 -25 -29 31 c-16 17 -34 31 -40 31 -7 0 -21
-21 -33 -47 l-21 -48 -8 32 c-8 29 -14 32 -52 35 l-42 4 55 26 54 27 49 153
c76 243 109 376 97 399 -13 24 -22 24 -49 2z"/>
</g>
</svg>
